<svg xmlns="http://www.w3.org/2000/svg" width="27.445" height="27.456" viewBox="0 0 27.445 27.456">
  <path id="info-circled" d="M18.272,24.576V21.728a.563.563,0,0,0-.16-.416.524.524,0,0,0-.384-.16H16V12a.549.549,0,0,0-.576-.576h-5.7A.549.549,0,0,0,9.152,12v2.848a.549.549,0,0,0,.576.576h1.7v5.728h-1.7a.549.549,0,0,0-.576.576v2.848a.549.549,0,0,0,.576.576h8a.524.524,0,0,0,.384-.16A.563.563,0,0,0,18.272,24.576ZM16,8.576V5.728a.549.549,0,0,0-.576-.576H12a.549.549,0,0,0-.576.576V8.576A.549.549,0,0,0,12,9.152h3.424A.549.549,0,0,0,16,8.576ZM27.424,16A13.44,13.44,0,0,1,25.6,22.88a13.663,13.663,0,0,1-4.992,4.992,13.372,13.372,0,0,1-6.88,1.856,13.543,13.543,0,0,1-6.912-1.856,13.111,13.111,0,0,1-4.96-4.992A14.6,14.6,0,0,1,0,16,12.155,12.155,0,0,1,1.856,9.12a15.2,15.2,0,0,1,4.96-4.992,12.892,12.892,0,0,1,6.912-1.856,12.729,12.729,0,0,1,6.88,1.856A15.927,15.927,0,0,1,25.6,9.12,11.347,11.347,0,0,1,27.424,16Z" transform="translate(0.005 -2.272)" fill="#004085"/>
</svg>
